<?xml version="1.0" encoding="UTF-8" standalone="no"?>
<svg
   width="16"
   height="16"
   fill="currentColor"
   class="bi bi-envelope-at"
   viewBox="0 0 16 16"
   version="1.1"
   id="svg2"
   sodipodi:docname="aemet-logo.svg"
   inkscape:version="1.4.4 (dcaf3e7, 2026-05-05)"
   xmlns:inkscape="http://www.inkscape.org/namespaces/inkscape"
   xmlns:sodipodi="http://sodipodi.sourceforge.net/DTD/sodipodi-0.dtd"
   xmlns="http://www.w3.org/2000/svg"
   xmlns:svg="http://www.w3.org/2000/svg">
  <defs
     id="defs2" />
  <sodipodi:namedview
     id="namedview2"
     pagecolor="#ffffff"
     bordercolor="#000000"
     borderopacity="0.25"
     inkscape:showpageshadow="2"
     inkscape:pageopacity="0.0"
     inkscape:pagecheckerboard="0"
     inkscape:deskcolor="#d1d1d1"
     inkscape:zoom="17.832349"
     inkscape:cx="6.9536548"
     inkscape:cy="8.5518738"
     inkscape:window-width="1920"
     inkscape:window-height="1009"
     inkscape:window-x="-8"
     inkscape:window-y="-8"
     inkscape:window-maximized="1"
     inkscape:current-layer="svg2" />
  <g
     id="g1"
     transform="matrix(0.28367197,0,0,0.28500573,0.5092936,0.42627014)">
    <path
       d="m 7.5071974,0.136835 c 0.412985,0.03355 0.412985,0.03355 0.834311,0.06778 0.891718,0.07357 1.7828996,0.153038 2.6741496,0.233231 0.607835,0.05268 1.215682,0.105186 1.823541,0.157519 1.186749,0.102877 2.373273,0.208403 3.559711,0.315549 1.300073,0.116324 2.600491,0.216171 3.902253,0.306828 0.586614,0.04624 1.173213,0.09272 1.759788,0.139559 0.381409,0.02184 0.381409,0.02184 0.770525,0.04413 1.134554,0.10305 1.697574,0.24447 2.535406,1.12298 0.53135,0.985768 0.987495,1.969152 1.416474,3.014228 2.339587,5.222638 6.201683,6.967034 10.964328,8.777414 1.727612,0.671997 3.196811,1.414055 4.230363,3.131725 0.431312,1.353965 0.552405,2.13938 0.355662,3.568364 -0.67891,1.39557 -1.508555,2.654057 -2.442711,3.852956 -0.499654,0.869439 -0.419151,1.215131 -0.264275,2.211071 0.02206,0.796315 0.02206,0.796315 -0.138313,1.641886 -0.564754,0.604333 -0.564754,0.604333 -1.339911,1.164369 -0.288404,0.20959 -0.576806,0.419179 -0.87395,0.635119 -1.631482,1.123243 -3.27381,2.218288 -4.938908,3.279409 -0.360613,0.229908 -0.721224,0.459814 -1.092766,0.69669 -5.079527,3.19785 -10.525449,6.392855 -16.533516,5.01433 -1.564763,-0.53224 -2.838461,-1.457801 -3.990086,-2.733735 -0.04586,-0.961439 -0.05897,-1.88613 -0.03952,-2.845934 0.0028,-0.264138 0.0057,-0.528277 0.0086,-0.800419 0.0074,-0.652697 0.01879,-1.305336 0.03087,-1.957948 1.028977,-0.372428 1.443474,-0.425307 2.431594,0.114932 0.299534,0.222147 0.599069,0.444294 0.90768,0.673173 3.438041,2.338701 7.132594,2.9983 11.065053,1.970262 2.728111,-0.924047 5.212973,-2.499152 6.777343,-5.210248 0.942976,-2.18351 0.996101,-4.565274 0.389005,-6.883603 C 30.295668,16.896257 25.63182,13.863278 21.784324,10.858344 21.561609,10.682648 21.338895,10.50695 21.10943,10.325928 17.569001,7.546319 14.000973,4.797197 9.4546964,5.604313 7.1064134,6.85873 6.1260274,9.013275 5.0447304,11.520571 4.7125294,12.259419 4.7125294,12.259419 4.3963864,12.609688 3.2344124,12.536818 2.4388674,12.485039 1.5140394,11.66834 0.82062343,10.724749 0.60127443,10.001589 0.34578643,8.822406 0.22536143,8.298872 0.22536143,8.298872 0.10250443,7.764759 -0.11359457,5.950059 -0.05801057,4.701752 0.96449143,3.22221 1.2428344,2.931885 1.5211774,2.641558 1.8079544,2.342434 c 0.275897,-0.294841 0.551795,-0.589683 0.836053,-0.893459 1.627103,-1.514737 2.777403,-1.505511 4.86319,-1.31214 z"
       fill="#034CA0"
       id="path1"
       style="fill:#000000;fill-opacity:1;stroke-width:0.33277" />
    <path
       d="m 15.326829,8.127341 c 2.18253,1.268337 4.15545,2.873302 6.141351,4.482346 0.222257,0.178914 0.444514,0.357829 0.673505,0.542165 8.601601,6.947223 8.601601,6.947223 9.286277,10.88125 0.100122,2.358138 -0.488978,3.871107 -1.878342,5.607037 -2.420882,2.585477 -5.385085,3.147315 -8.627283,3.099656 -3.353987,-0.155525 -6.344464,-1.660767 -8.938487,-4.017742 -1.281686,-1.734955 -1.454166,-2.992341 -1.457228,-5.141838 -0.0079,-0.427028 -0.0079,-0.427028 -0.01585,-0.862684 -0.01526,-0.902833 -0.02207,-1.805458 -0.02861,-2.708415 -0.0089,-0.614805 -0.01837,-1.229601 -0.02841,-1.844385 -0.0233,-1.501395 -0.039,-3.002677 -0.05063,-4.504238 -0.220881,-0.04245 -0.4417616,-0.08488 -0.6693356,-0.128613 -0.287716,-0.0587 -0.575433,-0.117395 -0.871867,-0.177872 -0.286086,-0.05689 -0.572172,-0.113783 -0.866927,-0.172397 -0.753312,-0.221655 -0.753312,-0.221655 -1.385602,-0.922193 0.04391,-1.702982 0.889727,-2.985115 1.896866,-4.203225 2.3542216,-1.757793 4.3851596,-1.1251 6.8205636,0.07115 z m -1.446112,9.035841 c -0.840713,1.481864 -0.834636,3.206751 -0.63229,4.903764 0.735876,2.685135 2.382081,4.21673 4.524816,5.560516 1.795908,0.607045 3.513475,0.796888 5.255899,-0.06568 1.300995,-1.179347 1.822708,-1.842906 2.03518,-3.76539 -0.184953,-2.151622 -0.893089,-4.005173 -2.300691,-5.535889 -0.623107,-0.532681 -1.253918,-0.997881 -1.92774,-1.447595 -0.299941,-0.216729 -0.599884,-0.433458 -0.908914,-0.656755 -2.202983,-0.878677 -4.27208,-0.811235 -6.04626,1.007024 z"
       fill="#044B9F"
       id="path2"
       style="fill:#000000;fill-opacity:1;stroke-width:0.33277" />
    <path
       d="m 40.167083,30.893872 c 0.585901,0.280062 0.585901,0.280062 0.981081,1.2433 0.383022,1.838911 0.383022,1.838911 0.237109,2.889717 -0.864794,1.44231 -1.528631,2.000691 -3.021894,2.47651 -0.520709,0.174991 -0.520709,0.174991 -1.051936,0.353519 -0.555782,0.181257 -0.555782,0.181257 -1.122793,0.366175 -7.033948,2.453885 -13.235953,6.062053 -18.078268,12.319612 -0.752078,0.596549 -0.752078,0.596549 -1.825239,0.660855 -1.512621,-0.550157 -2.148264,-1.401906 -3.115751,-2.756997 -0.163013,-0.214698 -0.326024,-0.429395 -0.493976,-0.650597 -1.348329,-1.815358 -2.420887,-3.453958 -2.331565,-5.895051 0.0086,-0.306127 0.01712,-0.612259 0.02594,-0.927666 0.01101,-0.228467 0.02201,-0.456936 0.03334,-0.692327 1.289368,-0.404161 1.917489,-0.288958 3.121926,0.328377 4.395431,1.876043 8.838164,0.464667 12.975117,-1.548416 3.874569,-1.966545 7.648979,-4.38878 11.182604,-7.025815 0.330784,-0.245428 0.330784,-0.245428 0.668256,-0.495815 0.19029,-0.146658 0.380581,-0.293317 0.576638,-0.444422 0.560738,-0.271166 0.560738,-0.271166 1.239415,-0.200959 z"
       fill="#024DA4"
       id="path3"
       style="fill:#000000;fill-opacity:1;stroke-width:0.33277" />
    <path
       d="m 31.821906,2.364325 c 0.514712,0.03928 0.514712,0.03928 1.039821,0.07936 5.259071,0.470128 8.956449,4.904543 12.633423,8.764929 0.24411,0.239757 0.488221,0.479513 0.73973,0.726534 0.308702,0.312225 0.308702,0.312225 0.623642,0.630758 0.174831,0.172481 0.349662,0.34496 0.529788,0.522666 0.31985,0.571923 0.31985,0.571923 0.280331,1.4216 -0.310633,1.012524 -0.68805,1.611231 -1.323854,2.412202 -0.187869,0.244271 -0.375741,0.488543 -0.569307,0.740216 -0.596475,0.5514 -0.596475,0.5514 -1.861052,0.5514 -0.516091,-0.72103 -0.879245,-1.48657 -1.279396,-2.291798 -1.532957,-2.136618 -3.84538,-2.971897 -6.110479,-3.816013 C 32.637018,10.573841 29.821495,8.987873 27.73426,4.868202 27.408221,4.03221 27.429753,3.35271 27.474923,2.451895 28.752381,1.744221 30.431977,2.238101 31.821906,2.364325 Z"
       fill="#034CA1"
       id="path4"
       style="fill:#000000;fill-opacity:1;stroke-width:0.33277" />
    <path
       d="m 43.271023,3.498594 c 0.524256,0.03371 1.048294,0.07183 1.572078,0.113564 0.271237,0.01973 0.542472,0.03945 0.821929,0.05977 0.540359,0.04005 1.080625,0.08167 1.62078,0.124937 0.621021,0.04717 1.242877,0.08061 1.864759,0.110826 1.24311,0.07485 2.102641,0.131538 3.181204,0.842836 0.60113,1.180668 0.845952,2.311451 0.750842,3.655929 -0.442647,0.912711 -1.044137,1.567879 -1.719036,2.276748 -0.167291,0.187832 -0.334583,0.375663 -0.506944,0.569188 -0.410947,0.459405 -0.83047,0.909357 -1.251609,1.35729 C 48.520511,12.096257 47.861882,11.432321 47.056112,10.486177 45.709704,8.949837 44.268608,7.627613 42.740002,6.319894 42.049129,5.635573 41.720477,5.147613 41.385273,4.203231 42.017561,3.502694 42.017561,3.502694 43.271023,3.498589 Z"
       fill="#024EA3"
       id="path5"
       style="fill:#000000;fill-opacity:1;stroke-width:0.33277" />
    <path
       d="m 19.25517,17.863719 c 2.105316,1.136567 3.470633,2.533795 4.386503,4.925655 0.06954,1.194331 -0.340177,2.084526 -1.008946,2.999177 -0.841682,0.761604 -1.564758,0.646934 -2.6156,0.603392 -1.685198,-0.269321 -3.049227,-1.126005 -4.219787,-2.486087 -0.837645,-1.462398 -0.968192,-2.208933 -0.968192,-3.940523 0.924645,-2.683081 2.074987,-2.756859 4.426022,-2.101614 z"
       fill="#034DA2"
       id="path6"
       style="fill:#000000;fill-opacity:1;stroke-width:0.33277" />
    <path
       d="m 37.275396,40.280922 c -0.283227,1.535508 -1.019492,2.62612 -1.837589,3.874849 -0.138761,0.218759 -0.277527,0.43752 -0.420494,0.662911 -0.137134,0.211535 -0.274268,0.423072 -0.415558,0.64102 -0.123813,0.191019 -0.247624,0.382039 -0.375192,0.578847 -0.784377,1.001082 -1.349717,1.55085 -2.562418,1.717312 -0.324496,-0.0056 -0.648992,-0.011 -0.983321,-0.01667 -0.352514,-0.0035 -0.705027,-0.0067 -1.068222,-0.01026 -0.549554,-0.0132 -0.549554,-0.0132 -1.11021,-0.02669 -0.55689,-0.0071 -0.55689,-0.0071 -1.12503,-0.01436 -0.916058,-0.01237 -1.831825,-0.02967 -2.747739,-0.05131 -0.104327,-0.346765 -0.208655,-0.693532 -0.316143,-1.050806 2.491987,-2.470344 5.242862,-4.005142 8.318546,-5.407275 0.275748,-0.128373 0.551491,-0.256743 0.835592,-0.389008 0.264233,-0.116801 0.528464,-0.233602 0.800703,-0.353944 0.236493,-0.105854 0.472989,-0.211705 0.716651,-0.320769 0.855999,-0.222063 1.448605,-0.08198 2.290424,0.166158 z"
       fill="#064697"
       id="path7"
       style="fill:#000000;fill-opacity:1;stroke-width:0.33277" />
    <path
       d="m 5.6609634,44.484147 c 0.885924,0.704156 1.469176,1.219384 1.72274,2.428621 0.06658,1.345582 -0.06821,1.996759 -0.734789,3.153788 -0.859932,0.92473 -1.146702,1.052957 -2.351323,1.204049 -1.165782,-0.131351 -1.165782,-0.131351 -2.074698,-0.875671 -0.754141,-1.130441 -0.987951,-1.70733 -0.987951,-3.108636 0.397634,-1.248236 0.763302,-1.92976 1.679517,-2.780259 1.099386,-0.481556 1.626364,-0.435573 2.746504,-0.02189 z"
       fill="#084899"
       id="path8"
       style="fill:#000000;fill-opacity:1;stroke-width:0.33277" />
    <path
       d="m 48.992496,21.52649 c 0.877917,0.272585 1.409233,0.823986 1.924036,1.644622 0.52232,1.255621 0.466385,2.073076 0.269215,3.449327 -0.756925,1.159283 -1.298167,1.638112 -2.509395,2.123505 -1.287324,-0.02911 -1.880334,-0.534934 -2.865058,-1.422968 -0.551562,-1.222196 -0.494608,-2.519438 -0.316144,-3.852956 0.930027,-1.577821 1.840993,-2.070128 3.497346,-1.94153 z"
       fill="#034CA2"
       id="path9"
       style="fill:#000000;fill-opacity:1;stroke-width:0.33277" />
    <path
       d="m 32.533231,26.970707 c 0.208655,0.11559 0.41731,0.231178 0.632289,0.35027 -0.515894,2.132964 -1.035979,3.376672 -2.529153,4.903763 -0.417001,0.933581 -0.417001,0.933581 -0.632289,1.751343 0.345585,-0.180607 0.69117,-0.361214 1.047227,-0.547295 1.165782,-0.503511 1.165782,-0.503511 2.114215,-0.153242 -1.111052,0.690054 -2.224882,1.374416 -3.339274,2.057829 -0.313186,0.194606 -0.626373,0.389208 -0.94905,0.589709 -1.608552,0.982865 -3.082231,1.814875 -4.879861,2.256225 0.312983,-0.520149 0.312983,-0.520149 0.632288,-1.050807 0.208656,0 0.417311,0 0.63229,0 -0.104329,-1.040298 -0.208657,-2.080596 -0.316145,-3.152419 0.198875,-0.07676 0.397749,-0.153516 0.60265,-0.2326 2.577407,-1.057952 4.794751,-2.432552 6.352525,-5.02143 0.392072,-0.938534 0.392072,-0.938534 0.632288,-1.751346 z"
       fill="#084794"
       id="path10"
       style="fill:#000000;fill-opacity:1;stroke-width:0.33277" />
    <path
       d="m 33.16552,42.732803 c 0.104327,0.462355 0.208655,0.92471 0.316144,1.401076 0.208655,0 0.417311,0 0.632289,0 -0.104328,0.577943 -0.208655,1.155887 -0.316145,1.751343 -0.208655,0 -0.417309,0 -0.632288,0 -0.104328,0.346766 -0.208655,0.693533 -0.316144,1.050807 -1.460587,0 -2.921174,0 -4.42602,0 0,-0.231178 0,-0.462355 0,-0.700537 -0.208656,0 -0.417311,0 -0.632288,0 -0.104328,-0.346766 -0.208657,-0.693533 -0.316145,-1.050807 0.407716,-0.48184 0.830477,-0.948409 1.264577,-1.401076 0.208655,0 0.417311,0 0.632288,0 0.104328,-0.231177 0.208656,-0.462353 0.316145,-0.700537 1.288415,-0.616413 2.125457,-0.790879 3.477587,-0.350269 z"
       fill="#024DA4"
       id="path11"
       style="fill:#000000;fill-opacity:1;stroke-width:0.33277" />
    <path
       d="m 16.409871,17.51345 c 2.382065,0.08379 3.877885,0.717191 5.690598,2.451883 0.80456,0.999451 1.501337,2.139416 1.580721,3.502687 -0.319411,1.209119 -0.694816,2.010594 -1.580721,2.80215 -1.541976,0.297533 -3.031833,0.09672 -4.426021,-0.700537 1.033519,-0.361181 1.852737,-0.337624 2.924335,-0.197026 0.282011,0.03567 0.564021,0.07134 0.854578,0.10809 0.213546,0.02934 0.42709,0.0587 0.647108,0.08894 0,-0.231178 0,-0.462355 0,-0.700538 -0.312983,0.115588 -0.625966,0.231177 -0.948434,0.350268 -0.104327,-0.346766 -0.208655,-0.693531 -0.316144,-1.050806 -0.208655,0 -0.41731,0 -0.632288,0 -0.197591,-0.656754 -0.197591,-0.656754 -0.316145,-1.401075 0.208656,-0.231176 0.417311,-0.462355 0.632289,-0.700537 -0.02808,-1.062523 -0.02808,-1.062523 -0.316144,-2.101613 -0.312983,-0.231178 -0.625967,-0.462355 -0.948433,-0.700538 0,-0.231177 0,-0.462355 0,-0.700537 -1.408423,-0.346767 -1.408423,-0.346767 -2.845299,-0.700538 0,-0.115589 0,-0.231178 0,-0.350269 z"
       fill="#064999"
       id="path12"
       style="fill:#000000;fill-opacity:1;stroke-width:0.33277" />
    <path
       d="m 30.320222,36.778234 c 0.208655,0.115589 0.41731,0.231177 0.632288,0.350268 -0.312983,0.577945 -0.625966,1.155887 -0.948432,1.751345 0.447984,-0.04985 0.89583,-0.101232 1.343613,-0.153243 0.249408,-0.02844 0.498818,-0.0569 0.755783,-0.0862 0.69015,-0.102545 1.339406,-0.258166 2.010479,-0.461098 0,-0.346767 0,-0.693533 0,-1.050807 0.938949,0.115589 1.877897,0.231178 2.8453,0.35027 -0.841811,0.621786 -1.578696,0.968348 -2.525681,1.331549 -3.897259,1.499771 -7.557851,3.631086 -11.068526,6.024095 0.402614,-1.338216 0.830314,-1.481711 1.916625,-2.167288 0.290569,-0.185572 0.581139,-0.371149 0.880511,-0.562347 0.22455,-0.139518 0.449099,-0.279037 0.680452,-0.422785 -0.208656,-0.80912 -0.41731,-1.618241 -0.632289,-2.451881 0.670219,-0.41939 1.342077,-0.834686 2.01542,-1.247833 0.190725,-0.119879 0.381449,-0.239755 0.577952,-0.363267 0.49529,-0.301812 1.00527,-0.573589 1.516505,-0.840782 z"
       fill="#084590"
       id="path13"
       style="fill:#000000;fill-opacity:1;stroke-width:0.33277" />
    <path
       d="m 23.68119,14.7113 c 2.599644,1.408121 4.985832,3.66727 6.639032,6.304839 -0.104327,0.231177 -0.208656,0.462354 -0.316144,0.700536 -0.189094,-0.223952 -0.378189,-0.447905 -0.573012,-0.678645 -0.662513,-0.79357 -0.662513,-0.79357 -1.639998,-1.072697 -0.04524,-0.218535 -0.09047,-0.437071 -0.13708,-0.662228 -0.121736,-0.792619 -0.121736,-0.792619 -0.763192,-1.258778 -0.231069,-0.146292 -0.462138,-0.292585 -0.700209,-0.443309 -0.231885,-0.149904 -0.463769,-0.299808 -0.702681,-0.454255 -0.178905,-0.110171 -0.357811,-0.220342 -0.542138,-0.33385 0.104327,0.346766 0.208656,0.693532 0.316145,1.050806 -0.104329,0.231178 -0.208657,0.462355 -0.316145,0.700538 0.312983,-0.115588 0.625966,-0.231178 0.948433,-0.350269 0.104327,0.346766 0.208656,0.693532 0.316144,1.050806 -0.625965,0.346767 -0.625965,0.346767 -1.264577,0.700539 0.110848,0.339541 0.221696,0.679083 0.335903,1.028913 0.414789,1.568292 0.220912,2.986306 -0.01975,4.575387 -0.208656,0 -0.417311,0 -0.632289,0 0.0326,-0.447906 0.06521,-0.895812 0.0988,-1.357293 -0.01167,-2.053119 -0.578692,-3.652126 -1.679517,-5.297814 -0.89203,-0.83131 -1.819092,-1.492253 -2.845299,-2.101613 0.587831,-0.206604 0.587831,-0.206604 1.264578,-0.350269 0.711324,0.503512 0.711324,0.503512 1.264577,1.050806 0.41731,-0.231177 0.834621,-0.462354 1.264578,-0.700537 -0.104328,-0.693532 -0.208656,-1.387064 -0.316146,-2.101613 z"
       fill="#08448E"
       id="path14"
       style="fill:#000000;fill-opacity:1;stroke-width:0.33277" />
    <path
       d="m 40.173797,30.890709 c 0.579187,0.283226 0.579187,0.283226 0.974367,1.246464 0.325778,1.564072 0.47955,2.387534 -0.217349,3.831064 -1.112344,1.112178 -2.201234,1.279879 -3.655419,1.510535 0.104327,-0.231178 0.208655,-0.462356 0.316144,-0.700538 0.733951,-0.142661 1.472248,-0.260734 2.21301,-0.350269 -0.104327,-0.577943 -0.208654,-1.155887 -0.316144,-1.751343 -0.417309,0 -0.83462,0 -1.264576,0 -0.691566,-0.13135 -0.691566,-0.13135 -1.264577,-0.350268 -0.104329,-0.231178 -0.208657,-0.462355 -0.316146,-0.700538 -0.41731,0.115589 -0.834621,0.231177 -1.264577,0.350269 0.917989,-0.858155 1.867411,-1.646561 2.865058,-2.386205 0.205804,-0.15397 0.411607,-0.307936 0.623645,-0.46657 0.621173,-0.299644 0.621173,-0.299644 1.306564,-0.232601 z"
       fill="#044C9E"
       id="path15"
       style="fill:#000000;fill-opacity:1;stroke-width:0.33277" />
    <path
       d="m 4.7125294,1.1e-5 c 0.925238,0.0045 1.812889,0.05258 2.732921,0.136824 0.414326,0.03355 0.414326,0.03355 0.837023,0.06778 0.898198,0.07381 1.7959046,0.153171 2.6936656,0.233231 0.610719,0.05265 1.221448,0.10516 1.832186,0.157519 1.193632,0.103006 2.387055,0.208536 3.580397,0.315549 1.304309,0.115908 2.608967,0.215853 3.91491,0.306828 0.585792,0.04622 1.171568,0.0927 1.757319,0.139559 0.254223,0.01456 0.508444,0.02912 0.77037,0.04413 1.143892,0.103875 1.7015,0.248516 2.546676,1.133927 0.496315,0.930073 0.886715,1.816714 1.227528,2.828146 0.158937,0.463935 0.158937,0.463935 0.321085,0.937243 0.07661,0.232532 0.153231,0.465064 0.232168,0.704642 -0.208655,0 -0.417311,0 -0.632287,0 C 25.9102,6.038073 25.587329,5.306435 25.380466,4.137564 25.056687,3.123311 25.056687,3.123311 24.405946,2.91607 22.458662,2.485059 20.522741,2.250559 18.543845,2.079735 17.936191,2.025425 17.328597,1.97027 16.721075,1.914178 16.323581,1.879598 16.323581,1.879598 15.918056,1.844308 15.145293,1.751358 15.145293,1.751358 14.355628,1.572199 13.551729,1.398306 12.795655,1.335077 11.977675,1.302571 11.680382,1.289481 11.383089,1.276381 11.076788,1.262891 10.769714,1.250701 10.462641,1.238511 10.146261,1.225941 8.1055184,1.143941 6.1029884,1.018797 4.0802424,0.700538 4.2888964,0.46936 4.4975524,0.238183 4.7125294,0 Z"
       fill="#104184"
       id="path16"
       style="fill:#000000;fill-opacity:1;stroke-width:0.33277" />
    <path
       d="m 4.4556634,44.527931 c 0.283641,0.151712 0.283641,0.151712 0.573012,0.306485 0.40718,1.353393 0.19756,2.36319 0.01852,3.755813 -0.0062,0.263234 -0.01223,0.526468 -0.01852,0.797681 0.208655,0.231178 0.41731,0.462355 0.632288,0.700538 -0.316144,0.350268 -0.316144,0.350268 -1.383132,0.437835 -1.146022,-0.08757 -1.146022,-0.08757 -1.758552,-0.437835 -0.535657,-1.11713 -0.453117,-2.263966 -0.335904,-3.502688 0.396116,-1.316619 0.936516,-2.142398 2.272288,-2.057829 z"
       fill="#024EA5"
       id="path17"
       style="fill:#000000;fill-opacity:1;stroke-width:0.33277" />
    <path
       d="m 6.6093974,11.208612 c 0.312982,0.173384 0.312982,0.173384 0.632288,0.350269 0,0.231177 0,0.462356 0,0.700537 0.243703,0.04245 0.487405,0.08488 0.738494,0.128615 0.475586,0.08805 0.475586,0.08805 0.960782,0.177871 0.315428,0.05689 0.630856,0.113782 0.955842,0.172398 0.8224696,0.221654 0.8224696,0.221654 1.4547576,0.922191 0.100802,0.81111 0.100802,0.81111 0.130904,1.823861 0.01223,0.369963 0.02445,0.739926 0.03705,1.1211 0.0098,0.393555 0.01956,0.78711 0.02965,1.19259 0.01223,0.397167 0.02445,0.794333 0.03705,1.203535 0.06944,2.394186 0.108869,4.783157 0.06174,7.178287 -0.01327,0.850288 -0.01327,0.850288 0.335904,1.841648 0.63234,0.423412 0.63234,0.423412 1.264577,0.700539 -0.104327,0.231176 -0.208656,0.462353 -0.316144,0.700536 -1.039586,-0.848692 -1.771892,-1.446981 -2.213013,-2.80215 -0.07478,-1.000557 -0.117664,-1.9703 -0.130904,-2.971812 -0.0062,-0.285677 -0.01224,-0.571354 -0.01856,-0.865688 -0.01886,-0.909976 -0.03355,-1.819968 -0.04813,-2.73004 -0.01207,-0.617994 -0.02442,-1.23598 -0.03705,-1.853962 -0.03031,-1.512761 -0.0569,-3.025555 -0.08151,-4.538444 -0.220882,-0.04245 -0.4417616,-0.08488 -0.6693366,-0.128614 -0.431573,-0.08805 -0.431573,-0.08805 -0.871866,-0.177871 -0.286087,-0.05689 -0.572173,-0.113783 -0.866928,-0.172398 -0.753313,-0.221654 -0.753313,-0.221654 -1.385601,-0.922192 0,-0.346765 0,-0.693531 0,-1.050806 z"
       fill="#0E3F88"
       id="path18"
       style="fill:#000000;fill-opacity:1;stroke-width:0.33277" />
    <path
       d="m 25.894201,39.580385 c 0,0.231177 0,0.462354 0,0.700537 -0.175238,0.09301 -0.350476,0.186024 -0.531024,0.281857 -0.229032,0.123716 -0.458064,0.247431 -0.694036,0.374897 -0.227401,0.121911 -0.454802,0.243819 -0.689095,0.369425 -0.662849,0.362839 -0.662849,0.362839 -1.247289,1.075434 -0.72815,0.05849 -0.72815,0.05849 -1.632588,0.01643 -0.328877,-0.01489 -0.657753,-0.02981 -0.996596,-0.04516 -0.345178,-0.0194 -0.690356,-0.03883 -1.045993,-0.05884 -0.337843,-0.01401 -0.675686,-0.02799 -1.023764,-0.04241 -2.553456,-0.128755 -4.610949,-0.563301 -6.9984,-1.621362 0.104328,1.502653 0.208657,3.005306 0.316145,4.553495 -0.632288,-0.350269 -0.632288,-0.350269 -0.948432,-1.401076 -0.02151,-0.605247 -0.02686,-1.211352 -0.01975,-1.817019 0.0028,-0.315609 0.0056,-0.631223 0.0086,-0.956398 0.0037,-0.24066 0.0074,-0.481319 0.01111,-0.729271 1.289366,-0.404161 1.917487,-0.288958 3.121924,0.328378 3.744905,1.598388 7.44268,0.766605 11.10457,-0.678646 0.63229,-0.350269 0.63229,-0.350269 1.264578,-0.350269 z"
       fill="#123E7E"
       id="path19"
       style="fill:#000000;fill-opacity:1;stroke-width:0.33277" />
    <path
       d="m 42.017561,3.502699 c 6.49105,0.350269 6.49105,0.350269 9.48433,0.700537 0,0.115589 0,0.231178 0,0.35027 -2.503862,0 -5.007725,0 -7.587463,0 0.114014,2.013389 0.114014,2.013389 0.948433,2.80215 -1.194742,0 -1.410339,-0.349232 -2.272287,-1.225941 C 42.364394,5.902149 42.138215,5.674584 41.905182,5.440123 41.733613,5.263128 41.562042,5.086133 41.385273,4.903774 41.593928,4.441419 41.802584,3.979065 42.017561,3.502699 Z"
       fill="#0C418D"
       id="path20"
       style="fill:#000000;fill-opacity:1;stroke-width:0.33277" />
    <path
       d="m 24.945768,16.812913 c 1.083399,0.433456 2.008474,0.858531 2.8453,1.751344 0,0.462354 0,0.924709 0,1.401076 0.41731,0.115588 0.834621,0.231176 1.264577,0.350267 -0.104328,0.462356 -0.208656,0.924711 -0.316145,1.401075 -0.208655,-0.115587 -0.417311,-0.231176 -0.632289,-0.350268 0,-0.231177 0,-0.462355 0,-0.700537 -1.165797,0.174545 -1.771959,0.385533 -2.529154,1.401076 -0.513735,-0.59108 -0.513735,-0.59108 -0.948434,-1.401076 0.256868,-0.963239 0.256868,-0.963239 0.63229,-1.751344 -0.104329,-0.11559 -0.208657,-0.231178 -0.316145,-0.350269 -0.01284,-0.583608 -0.01351,-1.167755 0,-1.751344 z"
       fill="#024EA6"
       id="path21"
       style="fill:#000000;fill-opacity:1;stroke-width:0.33277" />
    <path
       d="m 15.503425,8.2368 c 0.936763,0.53732 1.68798,1.162048 2.487168,1.921006 C 16.900168,10.001919 16.028652,9.626608 15.046499,9.107 13.687322,8.409644 12.524444,8.176175 11.035416,8.056193 10.722434,8.518548 10.409451,8.980903 10.086984,9.457268 9.1480354,9.283886 9.1480354,9.283886 8.1901184,9.107 7.9814634,9.684943 7.7728074,10.262887 7.5578294,10.858343 7.3491744,10.742755 7.1405184,10.627166 6.9255404,10.508075 9.2598234,6.476578 11.679387,6.454042 15.503425,8.2368 Z"
       fill="#104186"
       id="path22"
       style="fill:#000000;fill-opacity:1;stroke-width:0.33277" />
    <path
       d="m 31.821906,2.364325 c 0.514712,0.03928 0.514712,0.03928 1.039821,0.07936 2.768897,0.247522 4.389063,0.843911 6.310535,3.160629 C 38.226374,5.223227 37.471598,4.8149 36.629523,4.190924 35.183734,3.265787 33.774421,3.281771 32.138051,3.261891 31.576539,3.247141 31.015051,3.231231 30.453595,3.214001 30.207753,3.210101 29.96191,3.206201 29.708618,3.202111 29.055645,3.152431 29.055645,3.152431 28.107211,2.802159 28.315867,3.61128 28.524522,4.420401 28.7395,5.25404 28.426517,5.427423 28.426517,5.427423 28.107211,5.60431 27.519888,4.506223 27.41125,3.721714 27.474923,2.45189 28.752381,1.744216 30.431977,2.238096 31.821906,2.36433 Z"
       fill="#143E83"
       id="path23"
       style="fill:#000000;fill-opacity:1;stroke-width:0.33277" />
    <path
       d="m 52.134178,4.903774 c 0.771735,0.855028 0.897358,1.572592 1.007557,2.759735 -0.108966,1.369328 -0.913275,2.111285 -1.778156,3.0197 -0.167291,0.187832 -0.334583,0.375663 -0.506942,0.569187 -0.410945,0.459406 -0.830472,0.909359 -1.251611,1.357291 C 48.4674,12.07853 47.753327,11.331299 46.898039,10.354832 46.656376,10.08076 46.414712,9.806688 46.165722,9.524313 45.944434,9.27101 45.723146,9.017709 45.49515,8.756731 45.179701,8.405695 44.863872,8.055069 44.546717,7.705925 c 1.62544,0.200098 2.480995,1.622307 3.477587,2.9335 0.594354,0.64505 0.594354,0.64505 1.383131,0.634862 1.269295,-0.636184 2.072304,-1.500666 2.726743,-2.867825 0.151545,-1.190866 0.117018,-2.309497 0,-3.502688 z"
       fill="#0E3C7E"
       id="path24"
       style="fill:#000000;fill-opacity:1;stroke-width:0.33277" />
    <path
       d="m 22.317818,49.847637 c 0.361886,0.119201 0.361886,0.119201 0.731084,0.240811 0.217349,0.985131 0.217349,0.985131 0.316144,2.101612 -0.454457,0.656755 -0.454457,0.656755 -0.948433,1.050807 -0.770601,-0.24081 -0.770601,-0.24081 -1.580722,-0.700538 -0.316144,-0.85378 -0.316144,-0.85378 -0.316144,-1.751344 0.533145,-0.984486 0.761862,-1.074841 1.798071,-0.941348 z"
       fill="#13377C"
       id="path25"
       style="fill:#000000;fill-opacity:1;stroke-width:0.33277" />
    <path
       d="m 26.388176,49.97899 c 0.770602,0.459726 0.770602,0.459726 1.106505,1.11648 -0.01975,0.744322 -0.01975,0.744322 -0.632288,1.532427 -0.215176,0.20228 -0.430351,0.40456 -0.652048,0.61297 -0.770601,-0.284594 -0.770601,-0.284594 -1.580722,-0.700538 -0.316143,-1.050806 -0.316143,-1.050806 -0.05927,-1.795127 0.561152,-0.981667 0.800187,-1.068709 1.81783,-0.766212 z"
       fill="#13397A"
       id="path26"
       style="fill:#000000;fill-opacity:1;stroke-width:0.33277" />
    <path
       d="m 3.1318094,44.484147 c 0.208654,0.115589 0.41731,0.231177 0.632288,0.350269 -0.625965,0.346766 -0.625965,0.346766 -1.264578,0.700538 -0.01705,0.62745 -0.02932,1.255062 -0.03952,1.882695 -0.0074,0.349473 -0.01468,0.698949 -0.02223,1.059017 -0.0243,0.968205 -0.0243,0.968205 0.694037,1.611782 1.43923,0.120345 2.493056,-0.0018 3.793731,-0.700538 -0.866052,1.163072 -1.325751,1.700898 -2.687227,1.970262 -1.401648,-0.27731 -1.846826,-0.71052 -2.687226,-1.970262 -0.412252,-1.341705 -0.382129,-1.911536 0.07903,-3.239987 0.553252,-0.963238 0.553252,-0.963238 1.501686,-1.663776 z"
       fill="#134082"
       id="path27"
       style="fill:#000000;fill-opacity:1;stroke-width:0.33277" />
    <path
       d="m 27.158778,7.005387 c 0.234738,0.357602 0.234738,0.357602 0.474217,0.722429 2.396212,3.119458 5.162605,4.769491 8.693968,5.932677 0,0.231178 0,0.462356 0,0.700539 -0.41731,0 -0.834622,0 -1.264578,0 0,-0.231179 0,-0.462355 0,-0.700539 -0.226179,0.01851 -0.452357,0.03703 -0.685391,0.0561 C 31.999406,13.567625 29.642825,11.450632 27.93679,9.718606 27.288981,8.860781 27.158778,8.10924 27.158778,7.005391 Z"
       fill="#0D4181"
       id="path28"
       style="fill:#000000;fill-opacity:1;stroke-width:0.33277" />
    <path
       d="m 20.519747,46.58576 c 0.208656,0.115589 0.417311,0.231177 0.632288,0.350269 -0.578788,0.717077 -1.164871,1.421839 -1.758552,2.123504 -0.243601,0.305112 -0.243601,0.305112 -0.492123,0.616393 -0.493622,0.574077 -0.934602,1.04475 -1.543057,1.463328 -1.19542,0.01092 -1.19542,0.01092 -2.21301,-0.350269 -0.612529,-0.897563 -0.612529,-0.897563 -0.948433,-1.751343 0.625966,0.346765 0.625966,0.346765 1.264577,0.700537 0.104328,-0.231177 0.208655,-0.462355 0.316145,-0.700537 0.417311,0 0.834621,0 1.264577,0 0.104327,0.346765 0.208655,0.693531 0.316144,1.050806 1.043277,-1.155888 2.086554,-2.311775 3.161444,-3.502688 z"
       fill="#0B4189"
       id="path29"
       style="fill:#000000;fill-opacity:1;stroke-width:0.33277" />
    <path
       d="m 27.889862,13.769952 c 0.533494,0.59108 0.533494,0.59108 0.533494,1.291617 0.208655,0 0.41731,0 0.632289,0 0.208654,0.80912 0.41731,1.618242 0.632288,2.451881 -1.483222,-1.186615 -2.854776,-2.375471 -4.109876,-3.852957 0.986289,-0.333895 1.394039,-0.46766 2.311805,0.109459 z"
       fill="#0A4390"
       id="path30"
       style="fill:#000000;fill-opacity:1;stroke-width:0.33277" />
    <path
       d="m 46.759728,22.066946 c 0.217348,0.547293 0.217348,0.547293 0.316143,1.401074 -0.16301,0.40456 -0.326024,0.809121 -0.493976,1.22594 -0.554355,1.144948 -0.554355,1.144948 -0.256867,2.057829 0.435922,0.670818 0.435922,0.670818 1.383132,0.919457 0,0.231176 0,0.462354 0,0.700536 -1.154926,-0.437754 -1.511379,-0.585294 -2.21301,-1.751343 -0.152395,-1.066073 -0.149439,-2.085836 0,-3.152419 0.632288,-0.897564 0.632288,-0.897564 1.264578,-1.401074 z"
       fill="#0D418A"
       id="path31"
       style="fill:#000000;fill-opacity:1;stroke-width:0.33277" />
    <path
       d="m 32.533231,26.970707 c 0.208655,0.11559 0.41731,0.231178 0.632289,0.35027 -0.508983,2.104391 -1.003382,3.43573 -2.529153,4.903763 -0.104329,0.231177 -0.208656,0.462354 -0.316145,0.700537 -0.312983,-0.115588 -0.625966,-0.231177 -0.948434,-0.350269 0.420425,-1.023426 0.893521,-1.780934 1.580722,-2.605123 0.75634,-0.948348 1.244673,-1.770515 1.580721,-2.999178 z"
       fill="#0C418D"
       id="path32"
       style="fill:#000000;fill-opacity:1;stroke-width:0.33277" />
    <path
       d="m 47.075871,21.716675 c 0.925762,-0.104306 1.626097,-0.173844 2.529155,0 0.97834,0.903284 1.439797,1.445064 1.731386,2.80352 0.08764,1.346638 -0.112556,2.041882 -0.822471,3.129159 -0.980262,0.779138 -1.614094,0.980583 -2.805781,1.072699 0.683096,-0.756828 1.387364,-1.202486 2.21301,-1.751346 0.718309,-0.653993 0.718309,-0.653993 0.750842,-1.685667 -0.149258,-1.405652 -0.434464,-1.924562 -1.383131,-2.867827 -1.151341,-0.311934 -1.151341,-0.311934 -2.21301,-0.350267 0,-0.11559 0,-0.231179 0,-0.350271 z"
       fill="#16417E"
       id="path33"
       style="fill:#000000;fill-opacity:1;stroke-width:0.33277" />
    <path
       d="m 47.392015,14.361032 c 0,1.296126 -0.275889,1.55715 -1.027468,2.517556 -0.190724,0.250593 -0.381448,0.501185 -0.57795,0.759372 -0.607592,0.576028 -0.607592,0.576028 -1.872169,0.576028 -0.208655,-0.577943 -0.417311,-1.155888 -0.632289,-1.751344 0.834621,0 1.669242,0 2.529155,0 0.104327,-0.346766 0.208654,-0.693532 0.316144,-1.050806 0.652047,-0.591079 0.652047,-0.591079 1.264577,-1.050806 z"
       fill="#0C4188"
       id="path34"
       style="fill:#000000;fill-opacity:1;stroke-width:0.33277" />
    <path
       d="m 26.210345,44.834416 c 0.104329,0.346766 0.208656,0.693532 0.316146,1.050806 -0.303203,0.151709 -0.303203,0.151709 -0.61253,0.306486 -0.700122,0.333886 -0.700122,0.333886 -0.968193,1.09459 2.503863,0 5.007727,0 7.587463,0 0,0.115588 0,0.231177 0,0.350269 -2.60819,0 -5.21638,0 -7.903608,0 -0.104327,-0.346767 -0.208655,-0.693533 -0.316143,-1.050807 0.625964,-0.577943 1.251931,-1.155887 1.896865,-1.751344 z"
       fill="#174586"
       id="path35"
       style="fill:#000000;fill-opacity:1;stroke-width:0.33277" />
    <path
       d="m 16.409871,17.51345 c 2.422563,0.08521 3.783797,0.818722 5.690598,2.451883 -0.632289,0.350267 -1.264578,0.700537 -1.896866,1.050806 0,-0.346766 0,-0.693532 0,-1.050806 -0.312983,-0.231179 -0.625967,-0.462356 -0.948433,-0.700539 0,-0.231177 0,-0.462355 0,-0.700537 -1.408423,-0.346767 -1.408423,-0.346767 -2.845299,-0.700538 0,-0.115589 0,-0.231178 0,-0.350269 z"
       fill="#0A4588"
       id="path36"
       style="fill:#000000;fill-opacity:1;stroke-width:0.33277" />
    <path
       d="m 35.37853,33.976083 c 0,0.231178 0,0.462355 0,0.700538 -0.208655,0 -0.41731,0 -0.632288,0 -0.06521,0.216729 -0.13041,0.433457 -0.197591,0.656754 -0.606203,1.037987 -1.288658,1.100674 -2.331564,1.444859 -0.104327,0.231177 -0.208655,0.462355 -0.316144,0.700538 -0.312983,-0.346767 -0.625966,-0.693532 -0.948433,-1.050807 0.618124,-0.410487 1.237471,-0.818715 1.857348,-1.22594 0.344771,-0.227567 0.689542,-0.455131 1.044759,-0.689593 0.891625,-0.536349 0.891625,-0.536349 1.523913,-0.536349 z"
       fill="#0B428B"
       id="path37"
       style="fill:#000000;fill-opacity:1;stroke-width:0.33277" />
    <path
       d="m 11.035416,30.823665 c 0.529679,0.100193 1.057141,0.2164 1.580723,0.350268 -0.417311,0.115589 -0.834621,0.231177 -1.264578,0.350269 0.05868,0.288972 0.117369,0.577943 0.177831,0.875672 0.165105,1.463402 0.06604,2.578886 -0.177831,4.028091 -0.208655,0.115588 -0.41731,0.231177 -0.632288,0.350269 -0.0085,-0.926777 -0.01479,-1.853458 -0.01976,-2.780259 -0.0027,-0.264364 -0.0053,-0.528727 -0.008,-0.801102 -0.0027,-0.674385 0.01127,-1.348798 0.02779,-2.02294 0.104327,-0.115589 0.208654,-0.231177 0.316143,-0.350268 z"
       fill="#114188"
       id="path38"
       style="fill:#000000;fill-opacity:1;stroke-width:0.33277" />
    <path
       d="m 25.894201,16.462644 c 1.729421,1.327649 3.12971,2.71468 4.426021,4.553495 -0.104327,0.231177 -0.208656,0.462354 -0.316144,0.700536 -0.189094,-0.223952 -0.378189,-0.447905 -0.573012,-0.678645 -0.662513,-0.79357 -0.662513,-0.79357 -1.639998,-1.072697 -0.03912,-0.209505 -0.07825,-0.41901 -0.118555,-0.634863 -0.28594,-1.108815 -0.972521,-1.480545 -1.778312,-2.167288 0,-0.231178 0,-0.462356 0,-0.700538 z"
       fill="#0D3F81"
       id="path39"
       style="fill:#000000;fill-opacity:1;stroke-width:0.33277" />
    <path
       d="m 13.248427,4.903774 c 2.244405,0.553092 3.905562,1.176032 5.690598,2.802151 -0.104328,0.231177 -0.208655,0.462354 -0.316144,0.700537 -0.3085,-0.172931 -0.617,-0.345864 -0.934848,-0.524035 C 17.281754,7.655719 16.875458,7.429049 16.469148,7.202413 16.164417,7.031401 16.164417,7.031401 15.85353,6.856933 14.992705,6.377591 14.163824,5.94238 13.248427,5.604312 c 0,-0.231178 0,-0.462355 0,-0.700538 z"
       fill="#0E3F83"
       id="path40"
       style="fill:#000000;fill-opacity:1;stroke-width:0.33277" />
    <path
       d="m 40.43684,32.22474 c 0.208655,0 0.417311,0 0.632288,0 0.455248,2.479902 0.455248,2.479902 -0.118553,3.809173 -1.137296,1.020045 -2.24926,1.218687 -3.675179,1.444859 0.104327,-0.231178 0.208655,-0.462356 0.316144,-0.700538 0.358629,-0.04335 0.717253,-0.08669 1.086747,-0.131351 1.107421,-0.08495 1.107421,-0.08495 1.580721,-0.766213 0.258081,-1.239058 0.216069,-2.385036 0.177832,-3.65593 z"
       fill="#123D7A"
       id="path41"
       style="fill:#000000;fill-opacity:1;stroke-width:0.33277" />
    <path
       d="m 36.643107,14.010763 c 2.13959,0.695357 4.082439,1.355473 5.374454,3.502687 -0.104327,0.346767 -0.208655,0.693534 -0.316144,1.050807 C 41.623167,18.289733 41.544925,18.01521 41.464309,17.732368 40.76586,16.107303 39.011146,15.731457 37.568077,15.061569 36.959253,14.7113 36.959253,14.7113 36.643107,14.010763 Z"
       fill="#123F80"
       id="path42"
       style="fill:#000000;fill-opacity:1;stroke-width:0.33277" />
    <path
       d="m 48.340448,4.553506 c 1.251932,0 2.503864,0 3.79373,0 0,0.462353 0,0.924709 0,1.401074 -0.312981,0 -0.625964,0 -0.948431,0 C 51.08142,6.185757 50.977092,6.416935 50.869603,6.655118 50.55662,6.539529 50.243637,6.423941 49.92117,6.304849 50.025498,5.842495 50.129825,5.38014 50.237315,4.903774 c -0.625966,0 -1.251933,0 -1.896867,0 0,-0.115589 0,-0.231177 0,-0.350268 z"
       fill="#06469A"
       id="path43"
       style="fill:#000000;fill-opacity:1;stroke-width:0.33277" />
    <path
       d="m 25.261913,50.438716 c 0.529677,0.100195 1.05714,0.216399 1.580721,0.350269 -0.104327,0.577944 -0.208656,1.155888 -0.316143,1.751344 -0.417312,0.115589 -0.834622,0.231178 -1.264578,0.350269 -0.120557,-0.697529 -0.225493,-1.398549 -0.316145,-2.101613 0.104327,-0.115589 0.208656,-0.231177 0.316145,-0.350269 z"
       fill="#054BA3"
       id="path44"
       style="fill:#000000;fill-opacity:1;stroke-width:0.33277" />
    <path
       d="m 33.481664,9.807537 c 0.262858,0.157806 0.262858,0.157806 0.531024,0.318799 1.02611,0.533984 2.091498,0.809795 3.186145,1.124692 0.708852,0.307853 0.708852,0.307853 1.34114,1.358659 -1.970969,-0.556788 -3.845222,-1.147484 -5.690597,-2.101612 0.208654,-0.231177 0.417311,-0.462356 0.632288,-0.700538 z"
       fill="#0E4085"
       id="path45"
       style="fill:#000000;fill-opacity:1;stroke-width:0.33277" />
    <path
       d="m 29.371788,7.005387 c 1.086747,0.284594 1.086747,0.284594 2.213011,0.700538 0.104327,0.346766 0.208654,0.693532 0.316144,1.050806 0.312983,0.231177 0.625965,0.462354 0.948433,0.700537 0,0.231178 0,0.462355 0,0.700538 -1.454705,-0.521441 -2.3718,-1.312212 -3.477588,-2.451881 0,-0.231179 0,-0.462355 0,-0.700538 z"
       fill="#0B468A"
       id="path46"
       style="fill:#000000;fill-opacity:1;stroke-width:0.33277" />
    <path
       d="m 13.606637,41.674386 c 0.434593,0.02476 0.434593,0.02476 0.877965,0.05002 0.469167,0.0254 0.469167,0.0254 0.947814,0.05131 0.493621,0.02946 0.493621,0.02946 0.997213,0.05951 0.495455,0.02743 0.495455,0.02743 1.000919,0.05541 0.819056,0.04558 1.638004,0.09286 2.45691,0.141614 0,0.115588 0,0.231177 0,0.350269 -0.365554,0.03184 -0.365554,0.03184 -0.738493,0.0643 -0.317058,0.02935 -0.634116,0.0587 -0.960783,0.08894 -0.47314,0.04266 -0.47314,0.04266 -0.955842,0.0862 -0.815917,0.05818 -0.815917,0.05818 -1.454757,0.461097 -0.746045,-0.327777 -1.484714,-0.677237 -2.213011,-1.050806 -0.104328,0.231178 -0.208655,0.462356 -0.316145,0.700538 -0.208654,-0.231178 -0.417311,-0.462355 -0.632288,-0.700538 0.316145,-0.350268 0.316145,-0.350268 0.990498,-0.35788 z"
       fill="#044497"
       id="path47"
       style="fill:#000000;fill-opacity:1;stroke-width:0.33277" />
    <path
       d="m 34.113953,37.128502 c 0.938949,0.115589 1.877897,0.231178 2.8453,0.35027 -0.904553,0.668127 -1.69218,1.052046 -2.706987,1.46675 -0.306869,0.127778 -0.613737,0.25556 -0.929907,0.387212 -0.789128,0.247651 -0.789128,0.247651 -1.421416,-0.102619 1.501685,-1.050806 1.501685,-1.050806 2.21301,-1.050806 0,-0.346767 0,-0.693533 0,-1.050807 z"
       fill="#0D4387"
       id="path48"
       style="fill:#000000;fill-opacity:1;stroke-width:0.33277" />
    <path
       d="m 4.0802424,10.157806 c 0.104327,0.346766 0.208654,0.693532 0.316144,1.050806 0.208655,0 0.417311,0 0.632289,0 -0.208656,0.462355 -0.417311,0.92471 -0.632289,1.401075 -0.521638,0 -1.043277,0 -1.580722,0 -0.104328,-0.346766 -0.208656,-0.693532 -0.316145,-1.050806 0.312983,0 0.625967,0 0.948433,0 0,-0.346766 0,-0.693532 0,-1.050806 0.208656,-0.115589 0.417311,-0.231177 0.63229,-0.350269 z"
       fill="#094492"
       id="path49"
       style="fill:#000000;fill-opacity:1;stroke-width:0.33277" />
    <path
       d="m 25.894201,39.580385 c 0,0.231177 0,0.462354 0,0.700537 -0.175238,0.09301 -0.350476,0.186024 -0.531024,0.281857 -0.343547,0.185573 -0.343547,0.185573 -0.694036,0.374897 -0.341102,0.182865 -0.341102,0.182865 -0.689095,0.369425 -0.662849,0.362839 -0.662849,0.362839 -1.247289,1.075434 -1.146023,-0.131351 -1.146023,-0.131351 -2.21301,-0.350269 0,-0.115589 0,-0.231178 0,-0.350269 0.306462,-0.04335 0.612924,-0.08669 0.928674,-0.131351 0.319504,-0.07224 0.639007,-0.144486 0.968192,-0.218918 0.104328,-0.231177 0.208655,-0.462355 0.316144,-0.700537 0.561898,-0.298276 0.561898,-0.298276 1.244819,-0.569188 0.224549,-0.09121 0.449097,-0.182412 0.680452,-0.276383 0.603885,-0.205235 0.603885,-0.205235 1.236173,-0.205235 z"
       fill="#07418A"
       id="path50"
       style="fill:#000000;fill-opacity:1;stroke-width:0.33277" />
    <path
       d="m 21.46818,50.438716 c 0.652048,0.153244 0.652048,0.153244 1.264577,0.350269 0.104328,0.462355 0.208656,0.92471 0.316145,1.401075 -0.521638,0.11559 -1.043277,0.231178 -1.580722,0.350269 -0.120826,-0.580097 -0.225711,-1.164493 -0.316145,-1.751344 0.104329,-0.115589 0.208656,-0.231177 0.316145,-0.350269 z"
       fill="#0649A3"
       id="path51"
       style="fill:#000000;fill-opacity:1;stroke-width:0.33277" />
    <path
       d="m 13.880716,32.22474 c 1.460586,0.577943 2.921174,1.155887 4.42602,1.751343 -0.104326,0.231178 -0.208654,0.462355 -0.316143,0.700538 -0.567489,-0.07044 -1.13376,-0.153027 -1.699277,-0.24081 -0.315427,-0.0447 -0.630856,-0.0894 -0.955842,-0.135455 -0.407123,-0.160515 -0.407123,-0.160515 -0.822469,-0.324273 -0.208656,-0.577943 -0.417311,-1.155886 -0.632289,-1.751343 z"
       fill="#0B4284"
       id="path52"
       style="fill:#000000;fill-opacity:1;stroke-width:0.33277" />
    <path
       d="M 11.035416,8.056193 C 10.722434,8.518548 10.409451,8.980903 10.086984,9.457268 9.1480354,9.283886 9.1480354,9.283886 8.1901184,9.107 7.9814634,9.684943 7.7728074,10.262887 7.5578294,10.858343 7.3491744,10.742755 7.1405184,10.627166 6.9255404,10.508075 7.3016974,9.544319 7.6307844,8.902746 8.4778594,8.394148 10.25702,7.624985 10.25702,7.624985 11.035416,8.056193 Z"
       fill="#094892"
       id="path53"
       style="fill:#000000;fill-opacity:1;stroke-width:0.33277" />
    <path
       d="m 35.37853,40.280922 c 0,0.700538 0,0.700538 -0.474216,1.269724 -1.144474,0.697407 -2.023302,0.553425 -3.319515,0.48162 0.653457,-0.723992 1.045269,-0.926314 1.896865,-1.269724 0.221696,-0.09121 0.443393,-0.182414 0.671807,-0.276384 0.592771,-0.205236 0.592771,-0.205236 1.225059,-0.205236 z"
       fill="#0A4188"
       id="path54"
       style="fill:#000000;fill-opacity:1;stroke-width:0.33277" />
    <path
       d="m 14.829148,19.965333 c 0.208656,0 0.417312,0 0.632289,0 0.03912,0.332316 0.07825,0.664634 0.118554,1.007022 0.108081,1.124948 0.108081,1.124948 0.82988,1.795127 0.19759,0.919456 0.19759,0.919456 0.316144,1.751344 -1.104651,-1.004214 -1.671887,-1.695827 -1.837589,-3.261878 -0.01956,-0.426233 -0.03912,-0.852466 -0.05927,-1.291615 z"
       fill="#0F4281"
       id="path55"
       style="fill:#000000;fill-opacity:1;stroke-width:0.33277" />
    <path
       d="m 35.694674,39.930653 c 0.521639,0.115589 1.043277,0.231177 1.580722,0.350269 -0.194283,1.399169 -0.855632,2.362444 -1.580722,3.502687 -0.104327,-0.346765 -0.208655,-0.693532 -0.316144,-1.050806 0.208656,-0.231177 0.417311,-0.462354 0.632289,-0.700537 0.20476,-0.900405 0.20476,-0.900405 0.316144,-1.751344 -0.208654,-0.115589 -0.41731,-0.231177 -0.632289,-0.350269 z"
       fill="#0F3D80"
       id="path56"
       style="fill:#000000;fill-opacity:1;stroke-width:0.33277" />
    <path
       d="m 21.152035,44.133879 c 0.730293,0 1.460588,0 2.213011,0 0,0.346766 0,0.693532 0,1.050806 -0.625965,0.346766 -0.625965,0.346766 -1.264577,0.700537 0,-0.346766 0,-0.693532 0,-1.050806 -0.312983,0 -0.625966,0 -0.948434,0 0,-0.231178 0,-0.462354 0,-0.700537 z"
       fill="#094896"
       id="path57"
       style="fill:#000000;fill-opacity:1;stroke-width:0.33277" />
    <path
       d="m 40.752984,31.173933 c 0,0.231177 0,0.462355 0,0.700538 -0.280379,0.05056 -0.56076,0.10114 -0.849638,0.153243 -0.880041,0.165571 -1.753757,0.347887 -2.62795,0.547294 2.068362,-1.869477 2.068362,-1.869477 3.477588,-1.401075 z"
       fill="#11417F"
       id="path58"
       style="fill:#000000;fill-opacity:1;stroke-width:0.33277" />
    <path
       d="m 22.100469,20.3156 c 1.510309,1.943224 1.510309,1.943224 1.580721,3.15242 -0.296385,0.788104 -0.296385,0.788104 -0.632288,1.401075 -0.428185,-0.948806 -0.336698,-1.754613 -0.316145,-2.802149 -0.208655,0 -0.41731,0 -0.632288,0 0,-0.577945 0,-1.155888 0,-1.751346 z"
       fill="#0F3D86"
       id="path59"
       style="fill:#000000;fill-opacity:1;stroke-width:0.33277" />
    <path
       d="m 35.37853,40.280922 c 0.312984,0 0.625966,0 0.948433,0 0.05927,0.831888 0.05927,0.831888 0,1.751344 -0.312982,0.231177 -0.625965,0.462355 -0.948433,0.700537 -0.355662,-1.663777 -0.355662,-1.663777 0,-2.451881 z"
       fill="#054CA4"
       id="path60"
       style="fill:#000000;fill-opacity:1;stroke-width:0.33277" />
    <path
       d="m 5.9771074,8.056193 c 0.104328,0.231177 0.208656,0.462355 0.316145,0.700538 -0.295426,0.711552 -0.610869,1.413452 -0.948433,2.101612 -0.208656,-0.115588 -0.417311,-0.231177 -0.63229,-0.350268 C 4.5149404,9.785646 4.5149404,9.785646 4.3963864,9.107 c 0.208655,0 0.417311,0 0.632289,0 0,-0.231178 0,-0.462356 0,-0.700538 0.312982,-0.115589 0.625965,-0.231178 0.948432,-0.350269 z"
       fill="#08428B"
       id="path61"
       style="fill:#000000;fill-opacity:1;stroke-width:0.33277" />
    <path
       d="m 34.113953,30.123127 c 0.208655,0 0.417311,0 0.632289,0 0,0.231177 0,0.462355 0,0.700538 0.208655,0 0.41731,0 0.632288,0 0,0.346765 0,0.693532 0,1.050806 -0.41731,0.115588 -0.834621,0.231177 -1.264577,0.350269 -0.355663,-1.313509 -0.355663,-1.313509 0,-2.101613 z"
       fill="#054C95"
       id="path62"
       style="fill:#000000;fill-opacity:1;stroke-width:0.33277" />
    <path
       d="m 39.172262,5.604312 c 1.206676,0.544671 1.957554,1.413669 2.845299,2.451881 C 41.306236,8.012403 41.306236,8.012403 40.43684,7.705925 39.705756,6.633226 39.705756,6.633226 39.172262,5.604312 Z"
       fill="#0D3E81"
       id="path63"
       style="fill:#000000;fill-opacity:1;stroke-width:0.33277" />
    <path
       d="m 35.37853,3.15243 c 1.779633,0.140838 2.530379,0.801871 3.793732,2.101613 -1.088674,0 -1.501037,-0.278784 -2.430359,-0.875672 C 36.486382,4.215824 36.230862,4.053278 35.967596,3.885805 35.773205,3.75938 35.578814,3.632955 35.37853,3.502699 c 0,-0.115589 0,-0.231178 0,-0.350269 z"
       fill="#103D81"
       id="path64"
       style="fill:#000000;fill-opacity:1;stroke-width:0.33277" />
    <path
       d="m 26.210345,44.834416 c 0.104329,0.346766 0.208656,0.693532 0.316146,1.050806 -0.625968,0.346766 -0.625968,0.346766 -1.264578,0.700538 0,0.346766 0,0.693532 0,1.050807 -0.208657,0 -0.417311,0 -0.63229,0 -0.104327,-0.346767 -0.208655,-0.693533 -0.316143,-1.050807 0.625964,-0.577943 1.251931,-1.155887 1.896865,-1.751344 z"
       fill="#0F4082"
       id="path65"
       style="fill:#000000;fill-opacity:1;stroke-width:0.33277" />
    <path
       d="m 11.351561,45.184685 c 0.208655,0 0.417311,0 0.632289,0 0.476685,0.612971 0.476685,0.612971 0.987951,1.401075 0.170348,0.260075 0.340695,0.520149 0.516204,0.788105 0.129595,0.20228 0.259189,0.40456 0.392711,0.61297 -0.312982,0 -0.625966,0 -0.948433,0 -1.580722,-1.873531 -1.580722,-1.873531 -1.580722,-2.80215 z"
       fill="#0C4182"
       id="path66"
       style="fill:#000000;fill-opacity:1;stroke-width:0.33277" />
  </g>
</svg>
